<svg width="412" height="132" viewBox="0 0 412 132" fill="none" xmlns="http://www.w3.org/2000/svg">
<path d="M88.0629 79.66C86.4862 79.66 84.9279 79.4583 83.3879 79.055C81.8846 78.6517 80.4729 78.0833 79.1529 77.35C77.8696 76.58 76.7696 75.7 75.8529 74.71L80.6379 69.87C81.5179 70.8233 82.5629 71.575 83.7729 72.125C84.9829 72.6383 86.3029 72.895 87.7329 72.895C88.7229 72.895 89.4746 72.7483 89.9879 72.455C90.5379 72.1617 90.8129 71.7583 90.8129 71.245C90.8129 70.585 90.4829 70.09 89.8229 69.76C89.1996 69.3933 88.3929 69.0817 87.4029 68.825C86.4129 68.5317 85.3679 68.22 84.2679 67.89C83.1679 67.56 82.1229 67.1017 81.1329 66.515C80.1429 65.9283 79.3362 65.1217 78.7129 64.095C78.0896 63.0317 77.7779 61.6933 77.7779 60.08C77.7779 58.3567 78.2179 56.8717 79.0979 55.625C79.9779 54.3417 81.2246 53.3333 82.8379 52.6C84.4512 51.8667 86.3396 51.5 88.5029 51.5C90.7762 51.5 92.8662 51.9033 94.7729 52.71C96.7162 53.48 98.2929 54.635 99.5029 56.175L94.7179 61.015C93.8746 60.025 92.9212 59.3283 91.8579 58.925C90.8312 58.5217 89.8229 58.32 88.8329 58.32C87.8796 58.32 87.1646 58.4667 86.6879 58.76C86.2112 59.0167 85.9729 59.4017 85.9729 59.915C85.9729 60.465 86.2846 60.905 86.9079 61.235C87.5312 61.565 88.3379 61.8583 89.3279 62.115C90.3179 62.3717 91.3629 62.6833 92.4629 63.05C93.5629 63.4167 94.6079 63.9117 95.5979 64.535C96.5879 65.1583 97.3946 66.0017 98.0179 67.065C98.6412 68.0917 98.9529 69.4483 98.9529 71.135C98.9529 73.7383 97.9629 75.81 95.9829 77.35C94.0396 78.89 91.3996 79.66 88.0629 79.66ZM118.918 79.55C117.122 79.55 115.472 79.2017 113.968 78.505C112.465 77.8083 111.237 76.855 110.283 75.645C109.33 74.3983 108.78 72.9867 108.633 71.41V60.135C108.78 58.5583 109.33 57.1283 110.283 55.845C111.237 54.5617 112.465 53.5533 113.968 52.82C115.472 52.0867 117.122 51.72 118.918 51.72C121.448 51.72 123.685 52.325 125.628 53.535C127.608 54.745 129.148 56.395 130.248 58.485C131.385 60.575 131.953 62.9583 131.953 65.635C131.953 68.3117 131.385 70.695 130.248 72.785C129.148 74.875 127.608 76.525 125.628 77.735C123.685 78.945 121.448 79.55 118.918 79.55ZM117.378 71.96C118.588 71.96 119.633 71.685 120.513 71.135C121.43 70.585 122.145 69.8333 122.658 68.88C123.172 67.9267 123.428 66.845 123.428 65.635C123.428 64.3883 123.172 63.2883 122.658 62.335C122.145 61.3817 121.43 60.6483 120.513 60.135C119.633 59.585 118.607 59.31 117.433 59.31C116.26 59.31 115.215 59.585 114.298 60.135C113.418 60.6483 112.722 61.3817 112.208 62.335C111.695 63.2883 111.438 64.3883 111.438 65.635C111.438 66.845 111.677 67.9267 112.153 68.88C112.667 69.8333 113.382 70.585 114.298 71.135C115.215 71.685 116.242 71.96 117.378 71.96ZM103.518 90.275V52.27H111.933V59.145L110.558 65.635L111.823 72.125V90.275H103.518ZM149.428 79.605C146.532 79.605 143.947 79.0183 141.673 77.845C139.437 76.635 137.677 74.9667 136.393 72.84C135.11 70.7133 134.468 68.3117 134.468 65.635C134.468 62.9583 135.092 60.575 136.338 58.485C137.622 56.3583 139.345 54.69 141.508 53.48C143.672 52.27 146.11 51.665 148.823 51.665C151.463 51.665 153.792 52.2333 155.808 53.37C157.825 54.5067 159.402 56.0833 160.538 58.1C161.712 60.1167 162.298 62.4267 162.298 65.03C162.298 65.5067 162.262 66.02 162.188 66.57C162.152 67.0833 162.06 67.6883 161.913 68.385L138.868 68.44V62.665L158.338 62.61L154.708 65.03C154.672 63.49 154.433 62.225 153.993 61.235C153.553 60.2083 152.893 59.4383 152.013 58.925C151.17 58.375 150.125 58.1 148.878 58.1C147.558 58.1 146.403 58.4117 145.413 59.035C144.46 59.6217 143.708 60.465 143.158 61.565C142.645 62.665 142.388 64.0033 142.388 65.58C142.388 67.1567 142.663 68.5133 143.213 69.65C143.8 70.75 144.607 71.6117 145.633 72.235C146.697 72.8217 147.943 73.115 149.373 73.115C150.693 73.115 151.885 72.895 152.948 72.455C154.012 71.9783 154.947 71.2817 155.753 70.365L160.373 74.985C159.053 76.525 157.458 77.68 155.588 78.45C153.718 79.22 151.665 79.605 149.428 79.605ZM177.525 79.55C175.068 79.55 172.868 78.945 170.925 77.735C169.018 76.525 167.497 74.875 166.36 72.785C165.26 70.695 164.71 68.3117 164.71 65.635C164.71 62.9583 165.26 60.575 166.36 58.485C167.497 56.395 169.018 54.745 170.925 53.535C172.868 52.325 175.068 51.72 177.525 51.72C179.322 51.72 180.935 52.0683 182.365 52.765C183.832 53.4617 185.023 54.4333 185.94 55.68C186.857 56.89 187.37 58.2833 187.48 59.86V71.41C187.37 72.9867 186.857 74.3983 185.94 75.645C185.06 76.855 183.887 77.8083 182.42 78.505C180.953 79.2017 179.322 79.55 177.525 79.55ZM179.23 71.96C181.027 71.96 182.475 71.3733 183.575 70.2C184.675 68.99 185.225 67.4683 185.225 65.635C185.225 64.3883 184.968 63.2883 184.455 62.335C183.978 61.3817 183.282 60.6483 182.365 60.135C181.485 59.585 180.458 59.31 179.285 59.31C178.112 59.31 177.067 59.585 176.15 60.135C175.27 60.6483 174.555 61.3817 174.005 62.335C173.492 63.2883 173.235 64.3883 173.235 65.635C173.235 66.845 173.492 67.9267 174.005 68.88C174.518 69.8333 175.233 70.585 176.15 71.135C177.067 71.685 178.093 71.96 179.23 71.96ZM184.895 79V71.795L186.16 65.305L184.895 58.815V52.27H193.145V79H184.895ZM216.175 79L206.825 65.14L216.12 52.27H225.525L214.305 66.735L214.58 63.27L226.075 79H216.175ZM199.07 79V39.07H207.485V79H199.07ZM226.95 79L242.35 40.17H250.16L265.395 79H256.265L244.605 46.77H247.74L235.915 79H226.95ZM235.695 71.96V64.92H256.87V71.96H235.695ZM276.103 62.995V56.615H284.298C286.022 56.615 287.342 56.175 288.258 55.295C289.212 54.415 289.688 53.2233 289.688 51.72C289.688 50.3267 289.23 49.1717 288.313 48.255C287.397 47.3383 286.077 46.88 284.353 46.88H276.103V40.17H285.343C287.91 40.17 290.165 40.665 292.108 41.655C294.052 42.6083 295.573 43.9467 296.673 45.67C297.773 47.3933 298.323 49.3733 298.323 51.61C298.323 53.8833 297.773 55.8817 296.673 57.605C295.573 59.2917 294.033 60.6117 292.053 61.565C290.073 62.5183 287.745 62.995 285.068 62.995H276.103ZM269.503 79V40.17H278.138V79H269.503ZM290.623 79L278.523 62.28L286.443 60.135L300.853 79H290.623Z" fill="white"/>
<path d="M336.457 35.2333C337.138 34.7617 337.308 33.8273 336.837 33.1462C336.365 32.4651 335.431 32.2952 334.75 32.7667L336.457 35.2333ZM313.854 50.8819L336.457 35.2333L334.75 32.7667L312.146 48.4153L313.854 50.8819Z" fill="white"/>
<path d="M337.457 88.4153C338.138 88.8869 338.308 89.8213 337.837 90.5024C337.365 91.1835 336.431 91.3534 335.75 90.8819L337.457 88.4153ZM314.854 72.7667L337.457 88.4153L335.75 90.8819L313.146 75.2333L314.854 72.7667Z" fill="white"/>
<path d="M338 63.5C338.828 63.5 339.5 62.8284 339.5 62C339.5 61.1716 338.828 60.5 338 60.5V63.5ZM314 63.5H338V60.5H314V63.5Z" fill="white"/>
</svg>
