<svg width="265" height="69" viewBox="0 0 265 69" fill="none" xmlns="http://www.w3.org/2000/svg">
<path d="M13.0629 55.66C11.4862 55.66 9.92791 55.4583 8.38791 55.055C6.88458 54.6517 5.47291 54.0833 4.15291 53.35C2.86958 52.58 1.76958 51.7 0.85291 50.71L5.63791 45.87C6.51791 46.8233 7.56291 47.575 8.77291 48.125C9.98291 48.6383 11.3029 48.895 12.7329 48.895C13.7229 48.895 14.4746 48.7483 14.9879 48.455C15.5379 48.1617 15.8129 47.7583 15.8129 47.245C15.8129 46.585 15.4829 46.09 14.8229 45.76C14.1996 45.3933 13.3929 45.0817 12.4029 44.825C11.4129 44.5317 10.3679 44.22 9.26791 43.89C8.16791 43.56 7.12291 43.1017 6.13291 42.515C5.14291 41.9283 4.33624 41.1217 3.71291 40.095C3.08958 39.0317 2.77791 37.6933 2.77791 36.08C2.77791 34.3567 3.21791 32.8717 4.09791 31.625C4.97791 30.3417 6.22458 29.3333 7.83791 28.6C9.45124 27.8667 11.3396 27.5 13.5029 27.5C15.7762 27.5 17.8662 27.9033 19.7729 28.71C21.7162 29.48 23.2929 30.635 24.5029 32.175L19.7179 37.015C18.8746 36.025 17.9212 35.3283 16.8579 34.925C15.8312 34.5217 14.8229 34.32 13.8329 34.32C12.8796 34.32 12.1646 34.4667 11.6879 34.76C11.2112 35.0167 10.9729 35.4017 10.9729 35.915C10.9729 36.465 11.2846 36.905 11.9079 37.235C12.5312 37.565 13.3379 37.8583 14.3279 38.115C15.3179 38.3717 16.3629 38.6833 17.4629 39.05C18.5629 39.4167 19.6079 39.9117 20.5979 40.535C21.5879 41.1583 22.3946 42.0017 23.0179 43.065C23.6412 44.0917 23.9529 45.4483 23.9529 47.135C23.9529 49.7383 22.9629 51.81 20.9829 53.35C19.0396 54.89 16.3996 55.66 13.0629 55.66ZM43.9183 55.55C42.1217 55.55 40.4717 55.2017 38.9683 54.505C37.465 53.8083 36.2367 52.855 35.2833 51.645C34.33 50.3983 33.78 48.9867 33.6333 47.41V36.135C33.78 34.5583 34.33 33.1283 35.2833 31.845C36.2367 30.5617 37.465 29.5533 38.9683 28.82C40.4717 28.0867 42.1217 27.72 43.9183 27.72C46.4483 27.72 48.685 28.325 50.6283 29.535C52.6083 30.745 54.1483 32.395 55.2483 34.485C56.385 36.575 56.9533 38.9583 56.9533 41.635C56.9533 44.3117 56.385 46.695 55.2483 48.785C54.1483 50.875 52.6083 52.525 50.6283 53.735C48.685 54.945 46.4483 55.55 43.9183 55.55ZM42.3783 47.96C43.5883 47.96 44.6333 47.685 45.5133 47.135C46.43 46.585 47.145 45.8333 47.6583 44.88C48.1717 43.9267 48.4283 42.845 48.4283 41.635C48.4283 40.3883 48.1717 39.2883 47.6583 38.335C47.145 37.3817 46.43 36.6483 45.5133 36.135C44.6333 35.585 43.6067 35.31 42.4333 35.31C41.26 35.31 40.215 35.585 39.2983 36.135C38.4183 36.6483 37.7217 37.3817 37.2083 38.335C36.695 39.2883 36.4383 40.3883 36.4383 41.635C36.4383 42.845 36.6767 43.9267 37.1533 44.88C37.6667 45.8333 38.3817 46.585 39.2983 47.135C40.215 47.685 41.2417 47.96 42.3783 47.96ZM28.5183 66.275V28.27H36.9333V35.145L35.5583 41.635L36.8233 48.125V66.275H28.5183ZM74.4283 55.605C71.5316 55.605 68.9466 55.0183 66.6733 53.845C64.4366 52.635 62.6766 50.9667 61.3933 48.84C60.11 46.7133 59.4683 44.3117 59.4683 41.635C59.4683 38.9583 60.0916 36.575 61.3383 34.485C62.6216 32.3583 64.345 30.69 66.5083 29.48C68.6716 28.27 71.11 27.665 73.8233 27.665C76.4633 27.665 78.7916 28.2333 80.8083 29.37C82.825 30.5067 84.4016 32.0833 85.5383 34.1C86.7116 36.1167 87.2983 38.4267 87.2983 41.03C87.2983 41.5067 87.2616 42.02 87.1883 42.57C87.1516 43.0833 87.06 43.6883 86.9133 44.385L63.8683 44.44V38.665L83.3383 38.61L79.7083 41.03C79.6716 39.49 79.4333 38.225 78.9933 37.235C78.5533 36.2083 77.8933 35.4383 77.0133 34.925C76.17 34.375 75.125 34.1 73.8783 34.1C72.5583 34.1 71.4033 34.4117 70.4133 35.035C69.46 35.6217 68.7083 36.465 68.1583 37.565C67.645 38.665 67.3883 40.0033 67.3883 41.58C67.3883 43.1567 67.6633 44.5133 68.2133 45.65C68.8 46.75 69.6066 47.6117 70.6333 48.235C71.6966 48.8217 72.9433 49.115 74.3733 49.115C75.6933 49.115 76.885 48.895 77.9483 48.455C79.0116 47.9783 79.9466 47.2817 80.7533 46.365L85.3733 50.985C84.0533 52.525 82.4583 53.68 80.5883 54.45C78.7183 55.22 76.665 55.605 74.4283 55.605ZM102.525 55.55C100.068 55.55 97.8685 54.945 95.9251 53.735C94.0185 52.525 92.4968 50.875 91.3601 48.785C90.2601 46.695 89.7101 44.3117 89.7101 41.635C89.7101 38.9583 90.2601 36.575 91.3601 34.485C92.4968 32.395 94.0185 30.745 95.9251 29.535C97.8685 28.325 100.068 27.72 102.525 27.72C104.322 27.72 105.935 28.0683 107.365 28.765C108.832 29.4617 110.023 30.4333 110.94 31.68C111.857 32.89 112.37 34.2833 112.48 35.86V47.41C112.37 48.9867 111.857 50.3983 110.94 51.645C110.06 52.855 108.887 53.8083 107.42 54.505C105.953 55.2017 104.322 55.55 102.525 55.55ZM104.23 47.96C106.027 47.96 107.475 47.3733 108.575 46.2C109.675 44.99 110.225 43.4683 110.225 41.635C110.225 40.3883 109.968 39.2883 109.455 38.335C108.978 37.3817 108.282 36.6483 107.365 36.135C106.485 35.585 105.458 35.31 104.285 35.31C103.112 35.31 102.067 35.585 101.15 36.135C100.27 36.6483 99.5551 37.3817 99.0051 38.335C98.4918 39.2883 98.2351 40.3883 98.2351 41.635C98.2351 42.845 98.4918 43.9267 99.0051 44.88C99.5185 45.8333 100.233 46.585 101.15 47.135C102.067 47.685 103.093 47.96 104.23 47.96ZM109.895 55V47.795L111.16 41.305L109.895 34.815V28.27H118.145V55H109.895ZM141.175 55L131.825 41.14L141.12 28.27H150.525L139.305 42.735L139.58 39.27L151.075 55H141.175ZM124.07 55V15.07H132.485V55H124.07ZM151.95 55L167.35 16.17H175.16L190.395 55H181.265L169.605 22.77H172.74L160.915 55H151.95ZM160.695 47.96V40.92H181.87V47.96H160.695ZM201.103 38.995V32.615H209.298C211.022 32.615 212.342 32.175 213.258 31.295C214.212 30.415 214.688 29.2233 214.688 27.72C214.688 26.3267 214.23 25.1717 213.313 24.255C212.397 23.3383 211.077 22.88 209.353 22.88H201.103V16.17H210.343C212.91 16.17 215.165 16.665 217.108 17.655C219.052 18.6083 220.573 19.9467 221.673 21.67C222.773 23.3933 223.323 25.3733 223.323 27.61C223.323 29.8833 222.773 31.8817 221.673 33.605C220.573 35.2917 219.033 36.6117 217.053 37.565C215.073 38.5183 212.745 38.995 210.068 38.995H201.103ZM194.503 55V16.17H203.138V55H194.503ZM215.623 55L203.523 38.28L211.443 36.135L225.853 55H215.623Z" fill="white"/>
<path d="M261.457 11.2333C262.138 10.7617 262.308 9.82731 261.837 9.14618C261.365 8.46506 260.431 8.29516 259.75 8.76671L261.457 11.2333ZM238.854 26.8819L261.457 11.2333L259.75 8.76671L237.146 24.4153L238.854 26.8819Z" fill="white"/>
<path d="M262.457 64.4153C263.138 64.8869 263.308 65.8213 262.837 66.5024C262.365 67.1835 261.431 67.3534 260.75 66.8819L262.457 64.4153ZM239.854 48.7667L262.457 64.4153L260.75 66.8819L238.146 51.2333L239.854 48.7667Z" fill="white"/>
<path d="M263 39.5C263.828 39.5 264.5 38.8284 264.5 38C264.5 37.1716 263.828 36.5 263 36.5V39.5ZM239 39.5H263V36.5H239V39.5Z" fill="white"/>
</svg>
