<svg width="276" height="276" viewBox="0 0 276 276" fill="none" xmlns="http://www.w3.org/2000/svg">
<g filter="url(#filter0_f_104_24)">
<path d="M199.643 133.541C199.643 141.754 198.025 149.887 194.882 157.475C191.739 165.063 187.132 171.957 181.325 177.765C175.517 183.572 168.623 188.179 161.035 191.322C153.447 194.465 145.315 196.082 137.102 196.082C128.889 196.082 120.756 194.465 113.168 191.322C105.58 188.179 98.6858 183.572 92.8783 177.765C87.0708 171.957 82.4641 165.063 79.3211 157.475C76.1781 149.887 74.5604 141.754 74.5604 133.541L137.102 133.541H199.643Z" fill="#59345F"/>
</g>
<g filter="url(#filter1_f_104_24)">
<path d="M199.643 136.728C199.643 128.515 198.025 120.382 194.882 112.794C191.739 105.207 187.132 98.312 181.325 92.5045C175.517 86.6971 168.623 82.0903 161.035 78.9473C153.447 75.8043 145.315 74.1866 137.102 74.1866C128.889 74.1866 120.756 75.8043 113.168 78.9473C105.58 82.0903 98.6858 86.6971 92.8783 92.5045C87.0708 98.312 82.4641 105.207 79.3211 112.794C76.1781 120.382 74.5604 128.515 74.5604 136.728L137.102 136.728H199.643Z" fill="#3A5463"/>
</g>
<g filter="url(#filter2_f_104_24)">
<path d="M113.796 84.019C101.702 91.7432 92.6313 103.392 88.107 117.011C83.5827 130.629 83.8796 145.39 88.9479 158.816L147.459 136.728L113.796 84.019Z" fill="#5083A0"/>
</g>
<g filter="url(#filter3_f_104_24)">
<path d="M184.714 108.191C188.862 117.545 190.651 127.775 189.925 137.982C189.198 148.189 185.978 158.062 180.547 166.734L127.541 133.541L184.714 108.191Z" fill="#9955A5"/>
</g>
<g filter="url(#filter4_i_104_24)">
<circle cx="137.5" cy="137.5" r="58.5" fill="white"/>
</g>
<path d="M146.599 139.406C147.288 138.024 147.653 136.503 147.667 134.958V122.25C147.639 119.739 146.682 117.328 144.982 115.48C143.282 113.632 140.959 112.479 138.459 112.242C135.959 112.006 133.461 112.702 131.444 114.198C129.427 115.694 128.035 117.883 127.537 120.344" fill="#231F20"/>
<path d="M155.292 134.958C155.292 134.284 155.024 133.638 154.547 133.161C154.07 132.684 153.424 132.417 152.75 132.417C152.076 132.417 151.429 132.684 150.953 133.161C150.476 133.638 150.208 134.284 150.208 134.958C150.201 137.179 149.595 139.356 148.454 141.262L152.191 145.125C154.236 142.131 155.318 138.584 155.292 134.958Z" fill="#231F20"/>
<path d="M137.5 145.125H137.907L127.333 134.526V134.958C127.333 137.655 128.405 140.241 130.311 142.147C132.218 144.054 134.804 145.125 137.5 145.125Z" fill="#231F20"/>
<path d="M159.638 156.029L118.971 115.362C118.734 115.125 118.453 114.937 118.143 114.809C117.834 114.681 117.502 114.615 117.167 114.615C116.831 114.615 116.5 114.681 116.19 114.809C115.88 114.937 115.599 115.125 115.362 115.362C114.883 115.841 114.615 116.49 114.615 117.167C114.615 117.844 114.883 118.493 115.362 118.971L156.029 159.638C156.265 159.876 156.546 160.065 156.856 160.194C157.165 160.323 157.498 160.39 157.833 160.39C158.169 160.39 158.501 160.323 158.811 160.194C159.12 160.065 159.402 159.876 159.638 159.638C159.876 159.402 160.065 159.121 160.194 158.811C160.323 158.501 160.39 158.169 160.39 157.833C160.39 157.498 160.323 157.166 160.194 156.856C160.065 156.546 159.876 156.265 159.638 156.029Z" fill="#231F20"/>
<path d="M145.125 157.833H140.042V152.547C141.48 152.346 142.888 151.971 144.235 151.428L140.169 147.362C139.294 147.566 138.398 147.668 137.5 147.667C134.129 147.667 130.897 146.328 128.514 143.944C126.13 141.561 124.792 138.329 124.792 134.958C124.792 134.284 124.524 133.638 124.047 133.161C123.57 132.684 122.924 132.417 122.25 132.417C121.576 132.417 120.929 132.684 120.453 133.161C119.976 133.638 119.708 134.284 119.708 134.958C119.713 139.233 121.257 143.363 124.058 146.593C126.858 149.822 130.727 151.936 134.958 152.547V157.833H129.875C129.201 157.833 128.554 158.101 128.078 158.578C127.601 159.054 127.333 159.701 127.333 160.375C127.333 161.049 127.601 161.695 128.078 162.172C128.554 162.649 129.201 162.917 129.875 162.917H145.125C145.799 162.917 146.445 162.649 146.922 162.172C147.399 161.695 147.667 161.049 147.667 160.375C147.667 159.701 147.399 159.054 146.922 158.578C146.445 158.101 145.799 157.833 145.125 157.833Z" fill="#231F20"/>
<defs>
<filter id="filter0_f_104_24" x="34.5604" y="93.5413" width="205.082" height="142.541" filterUnits="userSpaceOnUse" color-interpolation-filters="sRGB">
<feFlood flood-opacity="0" result="BackgroundImageFix"/>
<feBlend mode="normal" in="SourceGraphic" in2="BackgroundImageFix" result="shape"/>
<feGaussianBlur stdDeviation="20" result="effect1_foregroundBlur_104_24"/>
</filter>
<filter id="filter1_f_104_24" x="34.5604" y="34.1866" width="205.082" height="142.541" filterUnits="userSpaceOnUse" color-interpolation-filters="sRGB">
<feFlood flood-opacity="0" result="BackgroundImageFix"/>
<feBlend mode="normal" in="SourceGraphic" in2="BackgroundImageFix" result="shape"/>
<feGaussianBlur stdDeviation="20" result="effect1_foregroundBlur_104_24"/>
</filter>
<filter id="filter2_f_104_24" x="44.9176" y="44.019" width="142.541" height="154.797" filterUnits="userSpaceOnUse" color-interpolation-filters="sRGB">
<feFlood flood-opacity="0" result="BackgroundImageFix"/>
<feBlend mode="normal" in="SourceGraphic" in2="BackgroundImageFix" result="shape"/>
<feGaussianBlur stdDeviation="20" result="effect1_foregroundBlur_104_24"/>
</filter>
<filter id="filter3_f_104_24" x="87.5413" y="68.1909" width="142.541" height="138.544" filterUnits="userSpaceOnUse" color-interpolation-filters="sRGB">
<feFlood flood-opacity="0" result="BackgroundImageFix"/>
<feBlend mode="normal" in="SourceGraphic" in2="BackgroundImageFix" result="shape"/>
<feGaussianBlur stdDeviation="20" result="effect1_foregroundBlur_104_24"/>
</filter>
<filter id="filter4_i_104_24" x="79" y="78.9999" width="117" height="121" filterUnits="userSpaceOnUse" color-interpolation-filters="sRGB">
<feFlood flood-opacity="0" result="BackgroundImageFix"/>
<feBlend mode="normal" in="SourceGraphic" in2="BackgroundImageFix" result="shape"/>
<feColorMatrix in="SourceAlpha" type="matrix" values="0 0 0 0 0 0 0 0 0 0 0 0 0 0 0 0 0 0 127 0" result="hardAlpha"/>
<feOffset dy="4"/>
<feGaussianBlur stdDeviation="2"/>
<feComposite in2="hardAlpha" operator="arithmetic" k2="-1" k3="1"/>
<feColorMatrix type="matrix" values="0 0 0 0 0 0 0 0 0 0 0 0 0 0 0 0 0 0 0.25 0"/>
<feBlend mode="normal" in2="shape" result="effect1_innerShadow_104_24"/>
</filter>
</defs>
</svg>
