<svg width="237" height="233" viewBox="0 0 237 233" fill="none" xmlns="http://www.w3.org/2000/svg">
<g filter="url(#filter0_f_104_23)">
<path d="M197 114.5C197 124.809 194.97 135.017 191.025 144.541C187.08 154.065 181.297 162.718 174.008 170.008C166.718 177.297 158.065 183.08 148.541 187.025C139.017 190.97 128.809 193 118.5 193C108.191 193 97.9834 190.97 88.4593 187.025C78.9353 183.08 70.2815 177.297 62.9921 170.008C55.7027 162.718 49.9204 154.065 45.9755 144.541C42.0305 135.017 40 124.809 40 114.5L118.5 114.5H197Z" fill="#59345F"/>
</g>
<g filter="url(#filter1_f_104_23)">
<path d="M197 118.5C197 108.191 194.97 97.9834 191.025 88.4593C187.08 78.9353 181.297 70.2815 174.008 62.9921C166.718 55.7027 158.065 49.9204 148.541 45.9755C139.017 42.0305 128.809 40 118.5 40C108.191 40 97.9834 42.0305 88.4593 45.9755C78.9353 49.9205 70.2815 55.7027 62.9921 62.9921C55.7027 70.2815 49.9204 78.9353 45.9755 88.4594C42.0305 97.9834 40 108.191 40 118.5L118.5 118.5H197Z" fill="#3A5463"/>
</g>
<g filter="url(#filter2_f_104_23)">
<path d="M85.2475 52.3413C70.0667 62.0365 58.682 76.6576 53.0033 93.7515C47.3245 110.845 47.6972 129.372 54.0587 146.224L127.5 118.5L85.2475 52.3413Z" fill="#5083A0"/>
</g>
<g filter="url(#filter3_f_104_23)">
<path d="M174.262 82.681C179.468 94.4225 181.714 107.262 180.802 120.074C179.89 132.885 175.848 145.278 169.031 156.163L102.5 114.5L174.262 82.681Z" fill="#9955A5"/>
</g>
<g filter="url(#filter4_i_104_23)">
<circle cx="118.5" cy="114.5" r="58.5" fill="white"/>
</g>
<path d="M118.5 121.875C121.108 121.875 123.609 120.839 125.453 118.995C127.297 117.151 128.333 114.65 128.333 112.042V99.7502C128.333 97.1422 127.297 94.6411 125.453 92.797C123.609 90.9529 121.108 89.9169 118.5 89.9169C115.892 89.9169 113.391 90.9529 111.547 92.797C109.703 94.6411 108.667 97.1422 108.667 99.7502V112.042C108.667 114.65 109.703 117.151 111.547 118.995C113.391 120.839 115.892 121.875 118.5 121.875Z" fill="#231F20"/>
<path d="M135.708 112.042C135.708 111.39 135.449 110.765 134.988 110.304C134.527 109.842 133.902 109.583 133.25 109.583C132.598 109.583 131.973 109.842 131.512 110.304C131.051 110.765 130.792 111.39 130.792 112.042C130.792 115.302 129.497 118.428 127.192 120.733C124.886 123.038 121.76 124.333 118.5 124.333C115.24 124.333 112.114 123.038 109.809 120.733C107.503 118.428 106.208 115.302 106.208 112.042C106.208 111.39 105.949 110.765 105.488 110.304C105.027 109.842 104.402 109.583 103.75 109.583C103.098 109.583 102.473 109.842 102.012 110.304C101.551 110.765 101.292 111.39 101.292 112.042C101.297 116.176 102.79 120.171 105.498 123.295C108.207 126.419 111.95 128.463 116.042 129.053V134.167H110.855C110.274 134.167 109.718 134.397 109.308 134.808C108.897 135.218 108.667 135.774 108.667 136.355V136.896C108.667 137.476 108.897 138.032 109.308 138.443C109.718 138.853 110.274 139.083 110.855 139.083H126.145C126.726 139.083 127.282 138.853 127.693 138.443C128.103 138.032 128.333 137.476 128.333 136.896V136.355C128.333 135.774 128.103 135.218 127.693 134.808C127.282 134.397 126.726 134.167 126.145 134.167H120.958V129.053C125.051 128.463 128.793 126.419 131.502 123.295C134.21 120.171 135.704 116.176 135.708 112.042Z" fill="#231F20"/>
<defs>
<filter id="filter0_f_104_23" x="0" y="74.5" width="237" height="158.5" filterUnits="userSpaceOnUse" color-interpolation-filters="sRGB">
<feFlood flood-opacity="0" result="BackgroundImageFix"/>
<feBlend mode="normal" in="SourceGraphic" in2="BackgroundImageFix" result="shape"/>
<feGaussianBlur stdDeviation="20" result="effect1_foregroundBlur_104_23"/>
</filter>
<filter id="filter1_f_104_23" x="0" y="0" width="237" height="158.5" filterUnits="userSpaceOnUse" color-interpolation-filters="sRGB">
<feFlood flood-opacity="0" result="BackgroundImageFix"/>
<feBlend mode="normal" in="SourceGraphic" in2="BackgroundImageFix" result="shape"/>
<feGaussianBlur stdDeviation="20" result="effect1_foregroundBlur_104_23"/>
</filter>
<filter id="filter2_f_104_23" x="9" y="12.3413" width="158.5" height="173.883" filterUnits="userSpaceOnUse" color-interpolation-filters="sRGB">
<feFlood flood-opacity="0" result="BackgroundImageFix"/>
<feBlend mode="normal" in="SourceGraphic" in2="BackgroundImageFix" result="shape"/>
<feGaussianBlur stdDeviation="20" result="effect1_foregroundBlur_104_23"/>
</filter>
<filter id="filter3_f_104_23" x="62.5" y="42.6809" width="158.5" height="153.482" filterUnits="userSpaceOnUse" color-interpolation-filters="sRGB">
<feFlood flood-opacity="0" result="BackgroundImageFix"/>
<feBlend mode="normal" in="SourceGraphic" in2="BackgroundImageFix" result="shape"/>
<feGaussianBlur stdDeviation="20" result="effect1_foregroundBlur_104_23"/>
</filter>
<filter id="filter4_i_104_23" x="60" y="56" width="117" height="121" filterUnits="userSpaceOnUse" color-interpolation-filters="sRGB">
<feFlood flood-opacity="0" result="BackgroundImageFix"/>
<feBlend mode="normal" in="SourceGraphic" in2="BackgroundImageFix" result="shape"/>
<feColorMatrix in="SourceAlpha" type="matrix" values="0 0 0 0 0 0 0 0 0 0 0 0 0 0 0 0 0 0 127 0" result="hardAlpha"/>
<feOffset dy="4"/>
<feGaussianBlur stdDeviation="2"/>
<feComposite in2="hardAlpha" operator="arithmetic" k2="-1" k3="1"/>
<feColorMatrix type="matrix" values="0 0 0 0 0 0 0 0 0 0 0 0 0 0 0 0 0 0 0.25 0"/>
<feBlend mode="normal" in2="shape" result="effect1_innerShadow_104_23"/>
</filter>
</defs>
</svg>
