<svg width="206" height="203" viewBox="0 0 206 203" fill="none" xmlns="http://www.w3.org/2000/svg">
<g filter="url(#filter0_f_104_25)">
<path d="M165.643 99.5412C165.643 107.754 164.025 115.887 160.882 123.475C157.739 131.063 153.132 137.957 147.325 143.765C141.517 149.572 134.623 154.179 127.035 157.322C119.447 160.465 111.315 162.082 103.102 162.082C94.8886 162.082 86.756 160.465 79.1681 157.322C71.5803 154.179 64.6858 149.572 58.8783 143.765C53.0708 137.957 48.4641 131.063 45.3211 123.475C42.1781 115.887 40.5604 107.754 40.5604 99.5412L103.102 99.5412H165.643Z" fill="#59345F"/>
</g>
<g filter="url(#filter1_f_104_25)">
<path d="M165.643 102.728C165.643 94.5148 164.025 86.3822 160.882 78.7944C157.739 71.2065 153.132 64.312 147.325 58.5045C141.517 52.6971 134.623 48.0903 127.035 44.9473C119.447 41.8043 111.315 40.1866 103.102 40.1866C94.8886 40.1866 86.756 41.8043 79.1681 44.9473C71.5803 48.0903 64.6858 52.6971 58.8783 58.5045C53.0708 64.312 48.4641 71.2065 45.3211 78.7944C42.1781 86.3822 40.5604 94.5148 40.5604 102.728L103.102 102.728H165.643Z" fill="#3A5463"/>
</g>
<g filter="url(#filter2_f_104_25)">
<path d="M79.7961 50.019C67.7015 57.7432 58.6313 69.3918 54.107 83.0107C49.5827 96.6295 49.8796 111.39 54.9479 124.816L113.459 102.728L79.7961 50.019Z" fill="#5083A0"/>
</g>
<g filter="url(#filter3_f_104_25)">
<path d="M150.714 74.1909C154.862 83.5454 156.651 93.7748 155.925 103.982C155.198 114.189 151.978 124.062 146.547 132.734L93.5412 99.5412L150.714 74.1909Z" fill="#9955A5"/>
</g>
<g filter="url(#filter4_i_104_25)">
<circle cx="103.5" cy="103.5" r="58.5" fill="white"/>
</g>
<path d="M112.599 105.406C113.288 104.024 113.653 102.503 113.667 100.958V88.2501C113.639 85.7394 112.682 83.3279 110.982 81.4802C109.282 79.6325 106.959 78.4792 104.459 78.2424C101.959 78.0057 99.4606 78.7024 97.444 80.1982C95.4273 81.6939 94.0355 83.8831 93.5366 86.3438" fill="#231F20"/>
<path d="M121.292 100.958C121.292 100.284 121.024 99.6376 120.547 99.1609C120.07 98.6843 119.424 98.4165 118.75 98.4165C118.076 98.4165 117.429 98.6843 116.953 99.1609C116.476 99.6376 116.208 100.284 116.208 100.958C116.201 103.179 115.595 105.356 114.454 107.262L118.191 111.125C120.236 108.131 121.318 104.584 121.292 100.958Z" fill="#231F20"/>
<path d="M103.5 111.125H103.907L93.3334 100.526V100.958C93.3334 103.655 94.4045 106.241 96.3111 108.147C98.2177 110.054 100.804 111.125 103.5 111.125Z" fill="#231F20"/>
<path d="M125.638 122.029L84.9712 81.3621C84.7342 81.1251 84.4528 80.9371 84.1432 80.8089C83.8336 80.6806 83.5017 80.6146 83.1666 80.6146C82.8314 80.6146 82.4996 80.6806 82.1899 80.8089C81.8803 80.9371 81.599 81.1251 81.362 81.3621C80.8834 81.8407 80.6145 82.4898 80.6145 83.1667C80.6145 83.8435 80.8834 84.4927 81.362 84.9713L122.029 125.638C122.265 125.876 122.546 126.065 122.856 126.194C123.165 126.323 123.498 126.39 123.833 126.39C124.169 126.39 124.501 126.323 124.811 126.194C125.12 126.065 125.402 125.876 125.638 125.638C125.876 125.402 126.065 125.121 126.194 124.811C126.323 124.501 126.39 124.169 126.39 123.833C126.39 123.498 126.323 123.166 126.194 122.856C126.065 122.546 125.876 122.265 125.638 122.029Z" fill="#231F20"/>
<path d="M111.125 123.833H106.042V118.547C107.48 118.346 108.888 117.971 110.235 117.428L106.169 113.362C105.294 113.566 104.398 113.668 103.5 113.667C100.129 113.667 96.897 112.328 94.5138 109.944C92.1305 107.561 90.7916 104.329 90.7916 100.958C90.7916 100.284 90.5238 99.6376 90.0471 99.1609C89.5705 98.6843 88.924 98.4165 88.2499 98.4165C87.5758 98.4165 86.9293 98.6843 86.4527 99.1609C85.976 99.6376 85.7083 100.284 85.7083 100.958C85.7133 105.233 87.2572 109.363 90.0575 112.593C92.8578 115.822 96.7274 117.936 100.958 118.547V123.833H95.8749C95.2008 123.833 94.5543 124.101 94.0777 124.578C93.601 125.054 93.3333 125.701 93.3333 126.375C93.3333 127.049 93.601 127.695 94.0777 128.172C94.5543 128.649 95.2008 128.917 95.8749 128.917H111.125C111.799 128.917 112.445 128.649 112.922 128.172C113.399 127.695 113.667 127.049 113.667 126.375C113.667 125.701 113.399 125.054 112.922 124.578C112.445 124.101 111.799 123.833 111.125 123.833Z" fill="#231F20"/>
<defs>
<filter id="filter0_f_104_25" x="0.560425" y="59.5413" width="205.082" height="142.541" filterUnits="userSpaceOnUse" color-interpolation-filters="sRGB">
<feFlood flood-opacity="0" result="BackgroundImageFix"/>
<feBlend mode="normal" in="SourceGraphic" in2="BackgroundImageFix" result="shape"/>
<feGaussianBlur stdDeviation="20" result="effect1_foregroundBlur_104_25"/>
</filter>
<filter id="filter1_f_104_25" x="0.560425" y="0.186646" width="205.082" height="142.541" filterUnits="userSpaceOnUse" color-interpolation-filters="sRGB">
<feFlood flood-opacity="0" result="BackgroundImageFix"/>
<feBlend mode="normal" in="SourceGraphic" in2="BackgroundImageFix" result="shape"/>
<feGaussianBlur stdDeviation="20" result="effect1_foregroundBlur_104_25"/>
</filter>
<filter id="filter2_f_104_25" x="10.9176" y="10.019" width="142.541" height="154.797" filterUnits="userSpaceOnUse" color-interpolation-filters="sRGB">
<feFlood flood-opacity="0" result="BackgroundImageFix"/>
<feBlend mode="normal" in="SourceGraphic" in2="BackgroundImageFix" result="shape"/>
<feGaussianBlur stdDeviation="20" result="effect1_foregroundBlur_104_25"/>
</filter>
<filter id="filter3_f_104_25" x="53.5413" y="34.1909" width="142.541" height="138.544" filterUnits="userSpaceOnUse" color-interpolation-filters="sRGB">
<feFlood flood-opacity="0" result="BackgroundImageFix"/>
<feBlend mode="normal" in="SourceGraphic" in2="BackgroundImageFix" result="shape"/>
<feGaussianBlur stdDeviation="20" result="effect1_foregroundBlur_104_25"/>
</filter>
<filter id="filter4_i_104_25" x="45" y="44.9999" width="117" height="121" filterUnits="userSpaceOnUse" color-interpolation-filters="sRGB">
<feFlood flood-opacity="0" result="BackgroundImageFix"/>
<feBlend mode="normal" in="SourceGraphic" in2="BackgroundImageFix" result="shape"/>
<feColorMatrix in="SourceAlpha" type="matrix" values="0 0 0 0 0 0 0 0 0 0 0 0 0 0 0 0 0 0 127 0" result="hardAlpha"/>
<feOffset dy="4"/>
<feGaussianBlur stdDeviation="2"/>
<feComposite in2="hardAlpha" operator="arithmetic" k2="-1" k3="1"/>
<feColorMatrix type="matrix" values="0 0 0 0 0 0 0 0 0 0 0 0 0 0 0 0 0 0 0.25 0"/>
<feBlend mode="normal" in2="shape" result="effect1_innerShadow_104_25"/>
</filter>
</defs>
</svg>
